PathFileType	4	(X/Y/Z)	TVC_32_BWA_06_walk_RCNL2025.trc
DataRate	CameraRate	NumFrames	NumMarkers	Units	OrigDataRate	OrigDataStartFrame	OrigNumFrames
100	100	5	27	mm	100	49	386
Frame#	Time	R_Shoulder			L_Shoulder			C7			J_Notch			R_Elbow			L_Elbow			R_Wrist			L_Wrist			R_Asis			L_Asis			R_Psis			L_Psis			Sacral			Thoracic			Sternum			R_Thigh_Lateral			R_Knee_Lateral			R_Shank_Lateral			R_Ankle_Lateral			R_Heel			R_Toe			L_Thigh_Lateral			L_Knee_Lateral			L_Shank_Lateral			L_Ankle_Lateral			L_Heel			L_Toe		
		X1	Y1	Z1	X2	Y2	Z2	X3	Y3	Z3	X4	Y4	Z4	X5	Y5	Z5	X6	Y6	Z6	X7	Y7	Z7	X8	Y8	Z8	X9	Y9	Z9	X10	Y10	Z10	X11	Y11	Z11	X12	Y12	Z12	X13	Y13	Z13	X14	Y14	Z14	X15	Y15	Z15	X16	Y16	Z16	X17	Y17	Z17	X18	Y18	Z18	X19	Y19	Z19	X20	Y20	Z20	X21	Y21	Z21	X22	Y22	Z22	X23	Y23	Z23	X24	Y24	Z24	X25	Y25	Z25	X26	Y26	Z26	X27	Y27	Z27
49	0.48000000	-1408.550415	1478.054077	449.336823	-1410.333374	1444.225464	72.893501	-1462.156006	1517.194702	260.029358	-1304.721069	1413.158691	272.697205	-1437.837402	1135.321899	582.374756	-1417.954346	1112.612305	-32.161583	-1354.052917	874.545074	552.009735	-1307.422180	865.213593	7.616467	-1398.548218	1010.645081	432.555878	-1391.690186	1022.457703	146.327621	-1584.012573	1030.274292	341.325012	-1580.344482	1032.445190	240.232986	-1582.178528	1031.359741	290.778999	-1550.027710	1264.105469	280.270844	-1288.281494	1266.994995	277.518463	-1381.128784	644.686218	528.752441	-1301.653442	523.750427	493.283203	-1462.613525	389.328552	516.953430	-1592.591797	229.954849	420.333130	-1643.987427	252.838272	352.403748	-1522.780029	97.632568	412.117523	-1455.523682	676.061035	88.448494	-1443.895264	510.744110	155.440918	-1467.181519	350.893585	93.305595	-1433.203369	75.765541	163.094528	-1501.204468	61.826630	211.689590	-1291.188843	42.620239	189.761017
50	0.49000000	-1400.292725	1478.381836	448.987396	-1401.830200	1444.047119	72.582138	-1453.855225	1517.357544	259.479919	-1296.725342	1412.833740	272.437897	-1435.694458	1135.773804	581.171631	-1400.530640	1112.861084	-33.429459	-1355.913391	873.661530	551.123810	-1287.485168	866.428345	5.619669	-1391.145752	1011.311951	432.077911	-1386.092896	1023.052429	145.232559	-1576.866333	1030.836060	341.798309	-1573.855225	1032.843384	240.659134	-1575.360779	1031.839722	291.228722	-1542.598267	1264.637573	280.537750	-1280.879272	1266.650757	277.074066	-1368.153687	646.460938	527.403625	-1286.322021	526.794312	491.845306	-1442.459595	386.588318	516.124329	-1568.190308	223.359268	419.615479	-1621.050903	244.436905	351.999176	-1492.528442	94.610321	410.256195	-1452.922974	676.515198	88.245560	-1440.912109	510.934601	155.120010	-1465.575806	351.218475	93.265594	-1433.190674	75.789314	163.112396	-1501.199097	61.995323	211.689636	-1291.229248	42.620663	189.714600
51	0.50000000	-1392.162354	1478.757080	448.659851	-1393.511719	1443.924927	72.358269	-1445.653076	1517.461304	259.013062	-1288.769165	1412.538330	272.236816	-1433.494751	1136.401367	580.084167	-1383.630981	1113.351562	-34.423714	-1357.730957	873.039276	550.225922	-1267.615234	868.127991	3.839727	-1383.596191	1011.993774	431.628784	-1380.324219	1023.538147	144.378784	-1569.617798	1031.335571	342.237610	-1567.265869	1033.212646	241.057816	-1568.441833	1032.274109	291.647713	-1535.117065	1265.070312	280.863892	-1273.429199	1266.339966	276.697723	-1355.677490	648.094299	526.066162	-1271.669556	529.611877	490.385712	-1422.511108	383.305756	515.256104	-1543.232666	215.925308	418.893494	-1597.374023	234.914429	351.473633	-1461.646118	91.131470	408.698364	-1450.616943	676.957458	88.067825	-1438.065430	511.102020	154.840378	-1464.039551	351.525208	93.271423	-1433.181885	75.816635	163.144913	-1501.133789	62.141495	211.715027	-1291.263428	42.626389	189.660767
52	0.51000000	-1384.154175	1479.128540	448.371979	-1385.313843	1443.835449	72.208458	-1437.517822	1517.493896	258.622894	-1280.829590	1412.250854	272.087982	-1431.221436	1137.145874	579.122375	-1367.387573	1114.022095	-35.199486	-1359.460754	872.635040	549.326416	-1247.852966	870.343262	2.307220	-1375.884766	1012.556824	431.187836	-1374.392700	1023.903076	143.744186	-1562.272705	1031.734619	342.695831	-1560.590210	1033.544189	241.491394	-1561.431458	1032.639404	292.093613	-1527.574951	1265.395386	281.247345	-1265.917114	1266.023193	276.384491	-1343.677979	649.532715	524.773926	-1257.710327	532.130554	488.890747	-1402.791138	379.539642	514.357239	-1517.718750	207.769501	418.208191	-1572.936768	224.386414	350.877991	-1430.179810	87.320503	407.514923	-1448.299805	677.364868	87.924957	-1435.281860	511.230560	154.629349	-1462.515747	351.811432	93.311653	-1433.166504	75.847046	163.195343	-1501.018555	62.274979	211.762543	-1291.287964	42.635944	189.603210
53	0.52000000	-1376.251465	1479.452148	448.143463	-1377.176758	1443.758911	72.125160	-1429.417358	1517.447876	258.313080	-1272.883667	1411.949585	271.989471	-1428.859497	1137.955933	578.297607	-1351.895020	1114.807129	-35.807625	-1361.071045	872.402588	548.432373	-1228.252441	873.090851	1.043163	-1368.002319	1012.899719	430.742065	-1368.309692	1024.142578	143.300507	-1554.837524	1032.009155	343.224823	-1553.839111	1033.831543	242.014694	-1554.338318	1032.920349	292.619759	-1519.964844	1265.610840	281.681854	-1258.330811	1265.667603	276.128967	-1332.121460	650.734375	523.550049	-1244.454102	534.290344	487.335052	-1383.309326	375.347443	513.445618	-1491.641113	199.006577	417.611664	-1547.726074	212.978210	350.283813	-1398.162964	83.303574	406.746674	-1445.687744	677.708618	87.827751	-1432.499146	511.305176	154.510330	-1460.952881	352.074799	93.380081	-1433.138672	75.880531	163.265625	-1500.867310	62.405869	211.822800	-1291.305420	42.647106	189.547470
